<?xml version="1.0" encoding="UTF-8"?>
<svg version="1.1" xmlns="http://www.w3.org/2000/svg" width="512" height="512">
<path d="M0 0 C7.59221433 5.61972727 13.68727481 12.22104411 18 20.6875 C18 21.3475 18 22.0075 18 22.6875 C18.94359375 22.62949219 19.8871875 22.57148437 20.859375 22.51171875 C32.5800978 22.09984596 41.13846547 24.11135548 50.375 31.875 C57.01760889 38.29334074 60.54771837 44.85799547 63 53.6875 C63.81206909 53.68896656 64.62413818 53.69043312 65.46081543 53.69194412 C85.23350693 53.7290192 105.00602711 53.78804329 124.77857971 53.87140274 C134.34050777 53.91118748 143.9023536 53.94358285 153.46435547 53.95849609 C161.80001534 53.97151553 170.13549423 53.99848767 178.47105217 54.04211307 C182.88342409 54.06472132 187.29557284 54.08041106 191.70800781 54.07938385 C195.86464851 54.07863686 200.02079599 54.09660306 204.17730904 54.12866783 C205.69940503 54.13715779 207.2215564 54.13892288 208.7436657 54.13330269 C217.93650793 54.10389129 225.01906614 54.32267469 232.2421875 60.65234375 C233.05042969 61.62880859 233.05042969 61.62880859 233.875 62.625 C234.42929687 63.27339844 234.98359375 63.92179687 235.5546875 64.58984375 C239.23495773 69.93120893 239.27889199 74.70097483 239.22705078 80.97583008 C239.22734283 81.90314941 239.22763489 82.83046875 239.22793579 83.78588867 C239.22654535 86.84303224 239.21099749 89.89993039 239.1953125 92.95703125 C239.19158136 95.0798072 239.18873486 97.20258487 239.18673706 99.32536316 C239.1791086 104.90669528 239.15946679 110.48792295 239.1373291 116.06921387 C239.11685376 121.76683133 239.10773173 127.46446571 239.09765625 133.16210938 C239.07622023 144.33728542 239.04209371 155.51238402 239 166.6875 C239.87172852 166.67861755 240.74345703 166.66973511 241.64160156 166.6605835 C249.88009575 166.58024262 258.11845727 166.5194368 266.35725403 166.48025131 C270.59234407 166.45942791 274.82710884 166.43120721 279.06201172 166.38574219 C283.15339326 166.34209576 287.24446307 166.31832347 291.33605957 166.30799103 C292.89250593 166.3006332 294.44893635 166.28626524 296.00524902 166.26457977 C305.47527832 166.13794284 312.79366972 166.12515831 320.2421875 172.65234375 C320.78101563 173.30332031 321.31984375 173.95429688 321.875 174.625 C322.42929687 175.27339844 322.98359375 175.92179688 323.5546875 176.58984375 C327.40081061 182.17191972 327.32063614 187.38938777 327.3359375 193.95703125 C327.3425943 194.95200119 327.3492511 195.94697113 327.35610962 196.97209167 C327.36621898 199.07423051 327.37092717 201.17640133 327.37060547 203.27856445 C327.37497077 206.47857172 327.41128761 209.67719038 327.44921875 212.87695312 C327.45508899 214.92447448 327.459057 216.97200235 327.4609375 219.01953125 C327.47530853 219.96874954 327.48967957 220.91796783 327.50448608 221.89595032 C327.45529602 229.12435415 325.84039144 234.44617855 321.03515625 239.9296875 C314.62205112 245.23796066 311.68887267 246.6875 303 246.6875 C303 251.9675 303 257.2475 303 262.6875 C305.31 262.6875 307.62 262.6875 310 262.6875 C316.58594643 264.47511403 321.21276784 269.19089548 325 274.6875 C327.62805317 279.57639892 327.32333835 284.5492328 327.3359375 289.95703125 C327.3425943 290.95200119 327.3492511 291.94697113 327.35610962 292.97209167 C327.36621898 295.07423051 327.37092717 297.17640133 327.37060547 299.27856445 C327.37497077 302.47857172 327.41128761 305.67719038 327.44921875 308.87695312 C327.45508899 310.92447448 327.459057 312.97200235 327.4609375 315.01953125 C327.47530853 315.96874954 327.48967957 316.91796783 327.50448608 317.89595032 C327.45529602 325.12435415 325.84039144 330.44617855 321.03515625 335.9296875 C314.62205112 341.23796066 311.68887267 342.6875 303 342.6875 C303 347.9675 303 353.2475 303 358.6875 C305.31 358.6875 307.62 358.6875 310 358.6875 C316.58594643 360.47511403 321.21276784 365.19089548 325 370.6875 C327.62805317 375.57639892 327.32333835 380.5492328 327.3359375 385.95703125 C327.3425943 386.95200119 327.3492511 387.94697113 327.35610962 388.97209167 C327.36621898 391.07423051 327.37092717 393.17640133 327.37060547 395.27856445 C327.37497077 398.47857172 327.41128761 401.67719038 327.44921875 404.87695312 C327.45508899 406.92447448 327.459057 408.97200235 327.4609375 411.01953125 C327.47530853 411.96874954 327.48967957 412.91796783 327.50448608 413.89595032 C327.45529602 421.12435415 325.84039144 426.44617855 321.03515625 431.9296875 C320.38417969 432.46851563 319.73320312 433.00734375 319.0625 433.5625 C318.41410156 434.11679687 317.76570313 434.67109375 317.09765625 435.2421875 C312.64285698 438.31160227 308.81458913 438.93930482 303.45426941 438.95492554 C302.81044054 438.95945665 302.16661167 438.96398776 301.50327283 438.96865618 C299.35391479 438.98127878 297.20481084 438.97968124 295.05541992 438.97802734 C293.5110288 438.98401398 291.96664067 438.99081984 290.42225647 438.99838257 C286.23205036 439.01603696 282.04192595 439.02073774 277.85168624 439.02201414 C275.23190384 439.02343672 272.61214214 439.02770836 269.99236488 439.03300858 C260.84735421 439.05150764 251.70240181 439.05967942 242.55737305 439.05810547 C234.04187584 439.05690439 225.52663223 439.07800031 217.01119918 439.1095928 C209.69297509 439.13577303 202.37483374 439.14647202 195.0565632 439.14519465 C190.6889414 439.14468549 186.32154498 439.15034302 181.95396996 439.17155075 C177.8441129 439.19096245 173.73469549 439.19103781 169.62482262 439.17651749 C168.12043107 439.17443184 166.61601179 439.17911574 165.11166763 439.1912384 C155.95543678 439.2602168 148.95294762 439.02780079 141.7578125 432.72265625 C141.21898437 432.07167969 140.68015625 431.42070312 140.125 430.75 C139.57070313 430.10160156 139.01640625 429.45320313 138.4453125 428.78515625 C134.59918939 423.20308028 134.67936386 417.98561223 134.6640625 411.41796875 C134.6574057 410.42299881 134.6507489 409.42802887 134.64389038 408.40290833 C134.63378102 406.30076949 134.62907283 404.19859867 134.62939453 402.09643555 C134.62502923 398.89642828 134.58871239 395.69780962 134.55078125 392.49804688 C134.54491101 390.45052552 134.540943 388.40299765 134.5390625 386.35546875 C134.52469147 385.40625046 134.51032043 384.45703217 134.49551392 383.47904968 C134.54470398 376.25064585 136.15960856 370.92882145 140.96484375 365.4453125 C147.37794888 360.13703934 150.31112733 358.6875 159 358.6875 C159 353.4075 159 348.1275 159 342.6875 C156.69 342.6875 154.38 342.6875 152 342.6875 C145.41405357 340.89988597 140.78723216 336.18410452 137 330.6875 C134.37194683 325.79860108 134.67666165 320.8257672 134.6640625 315.41796875 C134.6574057 314.42299881 134.6507489 313.42802887 134.64389038 312.40290833 C134.63378102 310.30076949 134.62907283 308.19859867 134.62939453 306.09643555 C134.62502923 302.89642828 134.58871239 299.69780962 134.55078125 296.49804688 C134.54491101 294.45052552 134.540943 292.40299765 134.5390625 290.35546875 C134.52469147 289.40625046 134.51032043 288.45703217 134.49551392 287.47904968 C134.54470398 280.25064585 136.15960856 274.92882145 140.96484375 269.4453125 C147.37794888 264.13703934 150.31112733 262.6875 159 262.6875 C159 257.4075 159 252.1275 159 246.6875 C156.69 246.6875 154.38 246.6875 152 246.6875 C145.41405357 244.89988597 140.78723216 240.18410452 137 234.6875 C134.37194683 229.79860108 134.67666165 224.8257672 134.6640625 219.41796875 C134.6574057 218.42299881 134.6507489 217.42802887 134.64389038 216.40290833 C134.63378102 214.30076949 134.62907283 212.19859867 134.62939453 210.09643555 C134.62502923 206.89642828 134.58871239 203.69780962 134.55078125 200.49804688 C134.54491101 198.45052552 134.540943 196.40299765 134.5390625 194.35546875 C134.52469147 193.40625046 134.51032043 192.45703217 134.49551392 191.47904968 C134.54470398 184.25064585 136.15960856 178.92882145 140.96484375 173.4453125 C141.61582031 172.90648437 142.26679688 172.36765625 142.9375 171.8125 C143.58589844 171.25820312 144.23429687 170.70390625 144.90234375 170.1328125 C149.54955496 166.93082339 153.49364714 166.44058578 159.08520508 166.46044922 C159.77843872 166.46015717 160.47167236 166.45986511 161.18591309 166.45956421 C163.46391574 166.46095103 165.74158615 166.47648133 168.01953125 166.4921875 C169.6042208 166.49591994 171.18891266 166.49876582 172.77360535 166.50076294 C176.93454413 166.50838123 181.09534221 166.52801412 185.25622559 166.5501709 C189.50608416 166.57066828 193.75596557 166.57977297 198.00585938 166.58984375 C206.33730399 166.6112618 214.66863447 166.64537584 223 166.6875 C222.91562025 155.2999647 222.8207459 143.91256984 222.71247292 132.52523518 C222.66252717 127.23763465 222.61619685 121.95005393 222.578125 116.66235352 C222.54125063 111.55943369 222.49488458 106.4566803 222.44193649 101.35390282 C222.42340403 99.40709541 222.40829183 97.46025234 222.39665604 95.51339149 C222.37977408 92.78650494 222.3507341 90.05999861 222.31884766 87.33325195 C222.31668747 86.52836334 222.31452728 85.72347473 222.31230164 84.89419556 C222.22540144 79.00911171 222.22540144 79.00911171 220 73.6875 C216.14020149 71.7151864 212.92628616 71.43989259 208.6282196 71.44699097 C207.34239487 71.44424164 206.05657013 71.44149231 204.73178101 71.43865967 C203.31426908 71.44573707 201.8967581 71.45300667 200.47924805 71.46044922 C198.98099271 71.46101359 197.48273682 71.46069626 195.98448181 71.45956421 C191.92287538 71.45899071 187.86138723 71.47074451 183.79980826 71.48471212 C179.55305313 71.49721999 175.30629525 71.49839003 171.05952454 71.50076294 C163.02024034 71.50697754 154.98101058 71.5233881 146.94175035 71.54346192 C137.78824909 71.56582153 128.63474523 71.57681451 119.48122346 71.58685279 C100.65411812 71.60775433 81.82706344 71.64292994 63 71.6875 C62.74822998 72.42645508 62.49645996 73.16541016 62.23706055 73.92675781 C61.89457275 74.90483398 61.55208496 75.88291016 61.19921875 76.890625 C60.86494873 77.85645508 60.53067871 78.82228516 60.1862793 79.81738281 C56.54980957 88.61555899 49.0917731 95.70383462 40.60600281 99.86004639 C33.10786849 102.79970494 26.45564179 103.21688811 18.45703125 103.078125 C16.58261604 103.06963531 16.58261604 103.06963531 14.67033386 103.06097412 C11.3870762 103.04252214 8.10464155 103.00674271 4.82165527 102.9621582 C1.45607625 102.92085272 -1.90962799 102.90266775 -5.27539062 102.8828125 C-11.85090473 102.84236024 -18.42441331 102.76403447 -25 102.6875 C-25 113.2475 -25 123.8075 -25 134.6875 C-19.555 135.6775 -19.555 135.6775 -14 136.6875 C-0.60654893 141.59478546 9.49679073 150.723385 17 162.6875 C17.74609375 165.046875 17.74609375 165.046875 18 166.6875 C19.41539062 166.60048828 19.41539062 166.60048828 20.859375 166.51171875 C32.646815 166.09750148 41.20020179 168.12513516 50.4375 176 C54.42934505 179.87029849 57.58268283 183.67598879 60 188.6875 C60.31710938 189.30367187 60.63421875 189.91984375 60.9609375 190.5546875 C64.82680594 199.66962502 64.48019932 212.45140597 61.4375 221.75 C57.25022325 231.31046055 50.0289557 239.28466238 40.58718872 243.85558319 C33.26936502 246.69834172 26.79694851 247.25961418 18.9921875 247.20507812 C17.11433563 247.21559204 17.11433563 247.21559204 15.19854736 247.22631836 C11.79739435 247.24080665 8.39722754 247.23755339 4.9961319 247.22480202 C1.41651707 247.21458865 -2.16305909 247.2240906 -5.74267578 247.23034668 C-11.7510524 247.23759907 -17.75923157 247.22809911 -23.76757812 247.20898438 C-30.68814737 247.18722009 -37.60824504 247.19427319 -44.52880287 247.21629 C-50.49861464 247.23451314 -56.46828545 247.23696876 -62.43811607 247.22653532 C-65.99139496 247.22033813 -69.54445308 247.21935939 -73.09771729 247.23268127 C-77.06272334 247.24651177 -81.0272123 247.22727765 -84.9921875 247.20507812 C-86.15095398 247.21317505 -87.30972046 247.22127197 -88.50360107 247.22961426 C-100.1813783 247.10911166 -109.49667782 243.80503819 -118 235.6875 C-126.80850953 226.46036823 -129.62574301 216.83705676 -129.47070312 204.32275391 C-128.97749031 191.8638834 -123.71158279 182.96759643 -114.8125 174.4375 C-105.28511097 166.87473886 -95.66082601 165.97064594 -84 166.6875 C-83.7421875 165.97207031 -83.484375 165.25664062 -83.21875 164.51953125 C-77.71960283 151.74106427 -66.63896259 142.84466557 -54 137.6875 C-45.49596774 134.6875 -45.49596774 134.6875 -41 134.6875 C-41 124.1275 -41 113.5675 -41 102.6875 C-46.98060547 102.75710937 -46.98060547 102.75710937 -53.08203125 102.828125 C-56.28999587 102.85390492 -59.49793066 102.8755761 -62.70594025 102.89450073 C-66.07655622 102.91549793 -69.44676036 102.94348648 -72.81713867 102.98925781 C-76.69721156 103.03812704 -80.57670526 103.06055005 -84.45703125 103.078125 C-85.64706253 103.09877014 -86.83709381 103.11941528 -88.06318665 103.14068604 C-99.96686358 103.14383979 -109.32339472 99.97045967 -118 91.6875 C-126.80850953 82.46036823 -129.62574301 72.83705676 -129.47070312 60.32275391 C-128.97749031 47.8638834 -123.71158279 38.96759643 -114.8125 30.4375 C-105.28511097 22.87473886 -95.66082601 21.97064594 -84 22.6875 C-83.61328125 21.61435547 -83.61328125 21.61435547 -83.21875 20.51953125 C-77.37858981 6.94864618 -65.38042164 -1.93979873 -52 -7.3125 C-34.41809048 -12.70379154 -15.21130673 -10.28672001 0 0 Z " fill="#000000" transform="translate(177,17.3125)"/>
<path d="M0 0 C1.0358499 -0.00453111 2.07169979 -0.00906223 3.13893908 -0.01373065 C6.61494396 -0.02640556 10.09079278 -0.02475226 13.56681824 -0.02310181 C16.05700889 -0.02908512 18.54719769 -0.03589021 21.03738403 -0.04345703 C27.10272426 -0.05930654 33.16800297 -0.0655663 39.23335818 -0.06668179 C44.16452639 -0.06763259 49.09568178 -0.07174448 54.02684593 -0.07808304 C68.0125186 -0.09569401 81.9981606 -0.10492217 95.98384444 -0.10342209 C97.11449655 -0.10330222 97.11449655 -0.10330222 98.26799011 -0.10317993 C99.40002535 -0.10305729 99.40002535 -0.10305729 100.55492999 -0.10293217 C112.7839286 -0.10211938 125.012804 -0.12125553 137.24176697 -0.14945666 C149.80319052 -0.17819552 162.36455401 -0.1919964 174.92601126 -0.19026911 C181.97638031 -0.18960554 189.02662021 -0.19508337 196.07695961 -0.21662521 C202.70816413 -0.2367568 209.33914261 -0.23615305 215.97037697 -0.22159195 C218.40359902 -0.2194989 220.83683801 -0.22423411 223.27003098 -0.23631287 C226.59318381 -0.25174044 229.91539299 -0.24247258 233.23852539 -0.22705078 C234.20011293 -0.23733791 235.16170046 -0.24762503 236.15242702 -0.25822389 C243.31266066 -0.18485614 248.62069837 1.47284886 254.05192566 6.23226929 C254.59075378 6.88324585 255.12958191 7.53422241 255.68473816 8.20492554 C256.23903503 8.85332397 256.79333191 9.50172241 257.36442566 10.16976929 C260.43384042 14.62456856 261.06154298 18.45283641 261.0771637 23.81315613 C261.08169481 24.456985 261.08622592 25.10081387 261.09089434 25.76415271 C261.10351694 27.91351075 261.1019194 30.0626147 261.1002655 32.21200562 C261.10625214 33.75639673 261.113058 35.30078486 261.12062073 36.84516907 C261.13827512 41.03537518 261.14297589 45.22549959 261.1442523 49.4157393 C261.14567488 52.0355217 261.14994652 54.6552834 261.15524673 57.27506065 C261.17374579 66.42007133 261.18191758 75.56502373 261.18034363 84.71005249 C261.17914255 93.2255497 261.20023847 101.74079331 261.23183095 110.25622636 C261.25801119 117.57445045 261.26871018 124.8925918 261.26743281 132.21086234 C261.26692365 136.57848413 261.27258118 140.94588056 261.29378891 145.31345558 C261.31320061 149.42331264 261.31327597 153.53273005 261.29875565 157.64260292 C261.29667 159.14699447 261.3013539 160.65141375 261.31347656 162.1557579 C261.38245496 171.31198876 261.15003895 178.31447792 254.84489441 185.50961304 C254.19391785 186.04844116 253.54294128 186.58726929 252.87223816 187.14242554 C252.22383972 187.69672241 251.57544128 188.25101929 250.90739441 188.82211304 C246.09673237 192.13672189 241.70942215 192.5515359 235.99015808 192.49447632 C235.21889587 192.49476837 234.44763367 192.49506042 233.65299988 192.49536133 C231.11528596 192.49397306 228.57786925 192.47843569 226.04020691 192.46273804 C224.2761552 192.45900612 222.5121014 192.45615999 220.74804688 192.4541626 C216.11364481 192.44654023 211.47936885 192.42690375 206.84501648 192.40475464 C202.11257127 192.38426611 197.3801056 192.37515445 192.64762878 192.36508179 C183.3682677 192.34365651 174.08903316 192.30848576 164.80973816 192.26742554 C164.80973816 197.54742554 164.80973816 202.82742554 164.80973816 208.26742554 C172.72973816 208.26742554 180.64973816 208.26742554 188.80973816 208.26742554 C188.80973816 213.54742554 188.80973816 218.82742554 188.80973816 224.26742554 C141.28973816 224.26742554 93.76973816 224.26742554 44.80973816 224.26742554 C44.80973816 218.98742554 44.80973816 213.70742554 44.80973816 208.26742554 C52.72973816 208.26742554 60.64973816 208.26742554 68.80973816 208.26742554 C68.80973816 202.98742554 68.80973816 197.70742554 68.80973816 192.26742554 C66.45848816 192.2883728 64.10723816 192.30932007 61.68473816 192.3309021 C53.89765684 192.39731759 46.11056268 192.44141892 38.32327271 192.47467422 C33.60392721 192.49550809 28.88487305 192.52374859 24.16569519 192.56918335 C19.6074794 192.61279149 15.04954302 192.63659422 10.49113464 192.64693451 C8.75606389 192.6542991 7.02100763 192.66868037 5.28605652 192.69034576 C2.84700524 192.71957966 0.40909397 192.72337335 -2.03010559 192.7215271 C-2.74005173 192.7359082 -3.44999786 192.75028931 -4.18145752 192.7651062 C-10.59728499 192.71289719 -15.66138357 190.48349831 -20.43244934 186.30258179 C-21.24069153 185.32611694 -21.24069153 185.32611694 -22.06526184 184.32992554 C-22.61955872 183.6815271 -23.17385559 183.03312866 -23.74494934 182.36508179 C-26.81436411 177.91028252 -27.44206666 174.08201466 -27.45768738 168.72169495 C-27.46221849 168.07786608 -27.4667496 167.4340372 -27.47141802 166.77069837 C-27.48404062 164.62134033 -27.48244308 162.47223638 -27.48078918 160.32284546 C-27.48677582 158.77845434 -27.49358168 157.23406621 -27.50114441 155.68968201 C-27.5187988 151.49947589 -27.52349958 147.30935149 -27.52477598 143.11911178 C-27.52619856 140.49932937 -27.53047021 137.87956768 -27.53577042 135.25979042 C-27.55426948 126.11477975 -27.56244126 116.96982735 -27.56086731 107.82479858 C-27.55966623 99.30930138 -27.58076216 90.79405776 -27.61235464 82.27862471 C-27.63853487 74.96040063 -27.64923386 67.64225927 -27.64795649 60.32398874 C-27.64744733 55.95636694 -27.65310486 51.58897051 -27.67431259 47.22139549 C-27.69372429 43.11153843 -27.69379965 39.00212102 -27.67927933 34.89224815 C-27.67719368 33.3878566 -27.68187758 31.88343732 -27.69400024 30.37909317 C-27.76297864 21.22286232 -27.53056263 14.22037316 -21.22541809 7.02523804 C-20.57444153 6.48640991 -19.92346497 5.94758179 -19.25276184 5.39242554 C-18.6043634 4.83812866 -17.95596497 4.28383179 -17.28791809 3.71273804 C-11.70354045 -0.13497095 -6.56496211 -0.02099913 0 0 Z " fill="#000000" transform="translate(35.19026184082031,279.7325744628906)"/>
<path d="M0 0 C0.73964288 0.00027238 1.47928576 0.00054477 2.24134207 0.00082541 C3.10164573 -0.01097993 3.9619494 -0.02278527 4.84832287 -0.03494835 C6.25128416 -0.01617158 6.25128416 -0.01617158 7.6825881 0.00298452 C8.68380272 -0.0034043 9.68501735 -0.00979312 10.71657181 -0.01637554 C14.07556281 -0.03165081 17.43337915 -0.01114644 20.79232931 0.00921011 C23.19872062 0.0057097 25.60510962 0.00005203 28.0114913 -0.00760508 C33.87139179 -0.0203916 39.73097709 -0.00990012 45.59082687 0.01150817 C52.41498439 0.03552394 59.23906259 0.03380344 66.06325299 0.03120226 C78.23945586 0.02751221 90.4154955 0.04833632 102.59164572 0.0824523 C114.40646633 0.11554359 126.22111563 0.12971058 138.03598166 0.12346792 C150.90189818 0.11670335 163.76774294 0.11916602 176.63364887 0.13882732 C177.65424558 0.14038655 177.65424558 0.14038655 178.69546041 0.14197728 C180.06199676 0.14406817 181.42853308 0.14617915 182.79506937 0.14831045 C187.55171517 0.15520508 192.30833886 0.15587552 197.06498861 0.15442801 C203.46719313 0.15283768 209.86923549 0.16773731 216.27138853 0.19365454 C218.62361611 0.20082761 220.97586551 0.2028945 223.32810163 0.1995368 C226.53397153 0.19583293 229.7392388 0.21053213 232.94503927 0.23003531 C233.8803468 0.22470738 234.81565433 0.21937945 235.7793045 0.21389008 C240.58989481 0.26453241 243.93683639 0.43561101 247.81381369 3.62444448 C264.06325812 36.12333335 248.81381369 76.28958213 248.81381369 112.62444448 C164.33381369 112.62444448 79.85381369 112.62444448 -7.18618631 112.62444448 C-7.18618631 2.05260383 -7.18618631 2.05260383 0 0 Z " fill="#68D5F3" transform="translate(31.18618631362915,295.3755555152893)"/>
<path d="M0 0 C10.11969125 6.23536532 16.45831527 15.26903098 19.5703125 26.6796875 C19.5703125 27.9996875 19.5703125 29.3196875 19.5703125 30.6796875 C20.34375 30.3909375 21.1171875 30.1021875 21.9140625 29.8046875 C30.31371398 26.81075232 37.03504993 24.98914382 45.5546875 28.578125 C51.39392236 31.76933475 56.28662744 36.28641906 58.94140625 42.453125 C60.77956006 48.96087453 60.29538949 54.85397988 57.5078125 60.9921875 C53.73379673 67.67092327 49.2253614 71.38593455 42.01261902 74.02908516 C37.27339231 75.2915606 32.46461319 75.10369958 27.58984375 75.08374023 C26.41159027 75.09060349 25.23333679 75.09746674 24.01937866 75.10453796 C20.1403993 75.12277862 16.26182538 75.11897253 12.3828125 75.11328125 C10.36218606 75.11575947 8.34156948 75.12010699 6.32094669 75.12463433 C-0.02533776 75.13864748 -6.3714875 75.13714456 -12.71777344 75.12573242 C-19.24809208 75.11424832 -25.77800016 75.12833871 -32.30826473 75.1551289 C-37.93231298 75.17733087 -43.55623276 75.18391338 -49.18032169 75.17805248 C-52.53186132 75.17469305 -55.88292792 75.17875398 -59.23446655 75.19430351 C-62.97302678 75.20920707 -66.7106864 75.19853985 -70.44921875 75.18139648 C-71.54867828 75.19106445 -72.64813782 75.20073242 -73.78091431 75.21069336 C-81.56554298 75.13607554 -86.98113498 73.69032859 -92.890625 68.53125 C-98.83568543 61.61556745 -100.96669355 56.60587017 -100.73046875 47.41796875 C-99.87539935 39.63350581 -95.46159089 35.3336275 -89.74609375 30.34375 C-84.24131532 26.38922114 -79.01822615 25.90243877 -72.4296875 26.6796875 C-68.3376216 27.78825659 -64.38495831 29.15738396 -60.4296875 30.6796875 C-60.29949219 29.79023438 -60.16929688 28.90078125 -60.03515625 27.984375 C-57.96525028 16.68669467 -51.78348629 7.29626938 -42.4296875 0.6796875 C-28.672289 -7.44118463 -14.03305524 -7.62567953 0 0 Z " fill="#E5E8EC" transform="translate(164.4296875,173.3203125)"/>
<path d="M0 0 C10.11969125 6.23536532 16.45831527 15.26903098 19.5703125 26.6796875 C19.5703125 27.9996875 19.5703125 29.3196875 19.5703125 30.6796875 C20.34375 30.3909375 21.1171875 30.1021875 21.9140625 29.8046875 C30.31371398 26.81075232 37.03504993 24.98914382 45.5546875 28.578125 C51.39392236 31.76933475 56.28662744 36.28641906 58.94140625 42.453125 C60.77956006 48.96087453 60.29538949 54.85397988 57.5078125 60.9921875 C53.73379673 67.67092327 49.2253614 71.38593455 42.01261902 74.02908516 C37.27339231 75.2915606 32.46461319 75.10369958 27.58984375 75.08374023 C26.41159027 75.09060349 25.23333679 75.09746674 24.01937866 75.10453796 C20.1403993 75.12277862 16.26182538 75.11897253 12.3828125 75.11328125 C10.36218606 75.11575947 8.34156948 75.12010699 6.32094669 75.12463433 C-0.02533776 75.13864748 -6.3714875 75.13714456 -12.71777344 75.12573242 C-19.24809208 75.11424832 -25.77800016 75.12833871 -32.30826473 75.1551289 C-37.93231298 75.17733087 -43.55623276 75.18391338 -49.18032169 75.17805248 C-52.53186132 75.17469305 -55.88292792 75.17875398 -59.23446655 75.19430351 C-62.97302678 75.20920707 -66.7106864 75.19853985 -70.44921875 75.18139648 C-71.54867828 75.19106445 -72.64813782 75.20073242 -73.78091431 75.21069336 C-81.56554298 75.13607554 -86.98113498 73.69032859 -92.890625 68.53125 C-98.83568543 61.61556745 -100.96669355 56.60587017 -100.73046875 47.41796875 C-99.87539935 39.63350581 -95.46159089 35.3336275 -89.74609375 30.34375 C-84.24131532 26.38922114 -79.01822615 25.90243877 -72.4296875 26.6796875 C-68.3376216 27.78825659 -64.38495831 29.15738396 -60.4296875 30.6796875 C-60.29949219 29.79023437 -60.16929688 28.90078125 -60.03515625 27.984375 C-57.96525028 16.68669467 -51.78348629 7.29626938 -42.4296875 0.6796875 C-28.672289 -7.44118463 -14.03305524 -7.62567953 0 0 Z " fill="#E5E8EC" transform="translate(164.4296875,29.3203125)"/>
<path d="M0 0 C84.48 0 168.96 0 256 0 C256 26 256 26 253 31 C250.25279042 31.91573653 248.64378748 32.12667017 245.81577396 32.13142776 C244.9588357 32.13526891 244.10189743 32.13911005 243.21899134 32.1430676 C242.27717601 32.14220112 241.33536068 32.14133463 240.36500549 32.14044189 C239.36479415 32.14341302 238.36458281 32.14638414 237.33406204 32.1494453 C233.96692166 32.15814921 230.59981677 32.15964196 227.23266602 32.16113281 C224.82495039 32.16575971 222.41723551 32.17078419 220.00952148 32.17617798 C213.45798744 32.18931448 206.9064608 32.19578562 200.35491681 32.20018864 C196.26545345 32.20295061 192.17599245 32.20718783 188.08653069 32.21169281 C176.7672735 32.22388431 165.44801822 32.23418456 154.12875462 32.2375679 C153.0420749 32.23789725 153.0420749 32.23789725 151.93344205 32.23823325 C151.20724593 32.23845153 150.48104981 32.23866981 149.73284775 32.2388947 C148.26127024 32.23933817 146.78969274 32.23978473 145.31811523 32.24023438 C144.58816036 32.2404558 143.85820549 32.24067723 143.10613077 32.24090537 C131.27201866 32.24485539 119.43796804 32.26231613 107.6038797 32.2855939 C95.45838967 32.30929174 83.31293052 32.321769 71.16741699 32.32293582 C64.3463191 32.32385335 57.52530138 32.32962541 50.70422554 32.34775543 C44.29142036 32.36474016 37.87872694 32.36642082 31.46590424 32.35761642 C29.10840638 32.35684289 26.75090051 32.36123015 24.39342308 32.37107468 C21.18275719 32.38369896 17.97263944 32.37796926 14.76197815 32.36749268 C13.35260124 32.37957728 13.35260124 32.37957728 11.91475207 32.39190602 C5.65608924 32.343923 5.65608924 32.343923 2.45237637 30.66453171 C-4.17812188 23.06548588 0 5.76662415 0 0 Z " fill="#CBD0D8" transform="translate(24,424)"/>
<path d="M0 0 C31.68 0 63.36 0 96 0 C96 26.4 96 52.8 96 80 C64.32 80 32.64 80 0 80 C0 53.6 0 27.2 0 0 Z " fill="#000000" transform="translate(168,312)"/>
<path d="M0 0 C1.25335648 -0.0112088 2.50671295 -0.0224176 3.79804993 -0.03396606 C5.17929541 -0.0210561 6.56053626 -0.00764202 7.94177246 0.00622559 C9.40236556 0.00272308 10.86295485 -0.00293697 12.3235321 -0.0105896 C16.28444302 -0.02482899 20.24465901 -0.00778496 24.20550346 0.01569557 C28.35249436 0.03581408 32.49945667 0.0299245 36.64648438 0.02758789 C43.61042735 0.02764145 50.5740989 0.04739183 57.53796387 0.07946777 C65.58658225 0.11636019 73.63484511 0.12514323 81.68353701 0.11817026 C89.4293882 0.11186269 97.1751176 0.12262425 104.92094421 0.14213562 C108.21589393 0.15030552 111.51078136 0.15301992 114.80574036 0.15144348 C118.68659242 0.15056384 122.56710719 0.16480184 126.44787025 0.19067001 C127.87125831 0.19782561 129.29468227 0.19991834 130.71808434 0.19655228 C132.6625838 0.19283137 134.60709037 0.20944302 136.55151367 0.22705078 C138.18302494 0.23264385 138.18302494 0.23264385 139.84749603 0.23834991 C143.1860126 0.67513452 145.07926517 1.63601755 147.77575684 3.62145996 C149.36582215 6.80159059 148.9599276 10.24116653 148.97888184 13.73474121 C148.98458191 14.54130661 148.99028198 15.34787201 148.99615479 16.17887878 C149.00560879 17.88783454 149.01214036 19.59680856 149.01599121 21.30578613 C149.02568003 23.91329037 149.05669183 26.52000074 149.08825684 29.12731934 C149.09478868 30.78812195 149.10003844 32.4489302 149.10388184 34.10974121 C149.11622864 34.88699051 149.12857544 35.66423981 149.14129639 36.46504211 C149.12270112 41.01261479 148.69925765 44.0604236 145.77575684 47.62145996 C142.53888557 48.70041705 140.19070441 48.75261528 136.78529358 48.76190186 C135.53324127 48.767612 134.28118896 48.77332214 132.99119568 48.77920532 C131.60110484 48.78045065 130.21101388 48.78157575 128.82092285 48.78259277 C127.35900751 48.78722134 125.89709339 48.79224605 124.43518066 48.79763794 C120.46207641 48.81075818 116.48898905 48.81720588 112.51586652 48.8216486 C110.03449542 48.82457925 107.55312895 48.828684 105.07176018 48.83315277 C97.31046907 48.84682522 89.54918852 48.85649375 81.7878862 48.86035466 C72.8237996 48.86483831 63.85986526 48.88240141 54.89582497 48.91135526 C47.96921683 48.93295311 41.04265159 48.94305789 34.11601013 48.94439578 C29.97767182 48.94544495 25.83947669 48.95137675 21.70117378 48.96921539 C17.80974702 48.98566393 13.91857158 48.9878674 10.0271225 48.97907639 C8.59845495 48.97830434 7.16977407 48.98267077 5.74114037 48.99253464 C3.79186897 49.00520472 1.84249711 48.99760365 -0.10679626 48.98895264 C-1.19798987 48.9904192 -2.28918348 48.99188576 -3.41344357 48.99339676 C-6.60097484 48.57160924 -7.95555636 47.86904477 -10.22424316 45.62145996 C-12.18246271 39.74680133 -11.53130602 33.02613825 -11.57434082 26.86169434 C-11.59090958 25.12164952 -11.61821206 23.38167301 -11.65637207 21.64196777 C-11.71121197 19.1269621 -11.73302177 16.61354589 -11.74768066 14.09802246 C-11.77035004 13.32391022 -11.79301941 12.54979797 -11.81637573 11.75222778 C-11.80141017 7.91527974 -11.48756237 5.95326044 -9.07678986 2.91551971 C-5.71128533 0.20893177 -4.26068898 -0.00279107 0 0 Z " fill="#FBD66F" transform="translate(339.2242431640625,391.3785400390625)"/>
<path d="M0 0 C1.25335648 -0.0112088 2.50671295 -0.0224176 3.79804993 -0.03396606 C5.17929541 -0.0210561 6.56053626 -0.00764202 7.94177246 0.00622559 C9.40236556 0.00272308 10.86295485 -0.00293697 12.3235321 -0.0105896 C16.28444302 -0.02482899 20.24465901 -0.00778496 24.20550346 0.01569557 C28.35249436 0.03581408 32.49945667 0.0299245 36.64648438 0.02758789 C43.61042735 0.02764145 50.5740989 0.04739183 57.53796387 0.07946777 C65.58658225 0.11636019 73.63484511 0.12514323 81.68353701 0.11817026 C89.4293882 0.11186269 97.1751176 0.12262425 104.92094421 0.14213562 C108.21589393 0.15030552 111.51078136 0.15301992 114.80574036 0.15144348 C118.68659242 0.15056384 122.56710719 0.16480184 126.44787025 0.19067001 C127.87125831 0.19782561 129.29468227 0.19991834 130.71808434 0.19655228 C132.6625838 0.19283137 134.60709037 0.20944302 136.55151367 0.22705078 C138.18302494 0.23264385 138.18302494 0.23264385 139.84749603 0.23834991 C143.1860126 0.67513452 145.07926517 1.63601755 147.77575684 3.62145996 C149.36582215 6.80159059 148.9599276 10.24116653 148.97888184 13.73474121 C148.98458191 14.54130661 148.99028198 15.34787201 148.99615479 16.17887878 C149.00560879 17.88783454 149.01214036 19.59680856 149.01599121 21.30578613 C149.02568003 23.91329037 149.05669183 26.52000074 149.08825684 29.12731934 C149.09478868 30.78812195 149.10003844 32.4489302 149.10388184 34.10974121 C149.11622864 34.88699051 149.12857544 35.66423981 149.14129639 36.46504211 C149.12270112 41.01261479 148.69925765 44.0604236 145.77575684 47.62145996 C142.53888557 48.70041705 140.19070441 48.75261528 136.78529358 48.76190186 C135.53324127 48.767612 134.28118896 48.77332214 132.99119568 48.77920532 C131.60110484 48.78045065 130.21101388 48.78157575 128.82092285 48.78259277 C127.35900751 48.78722134 125.89709339 48.79224605 124.43518066 48.79763794 C120.46207641 48.81075818 116.48898905 48.81720588 112.51586652 48.8216486 C110.03449542 48.82457925 107.55312895 48.828684 105.07176018 48.83315277 C97.31046907 48.84682522 89.54918852 48.85649375 81.7878862 48.86035466 C72.8237996 48.86483831 63.85986526 48.88240141 54.89582497 48.91135526 C47.96921683 48.93295311 41.04265159 48.94305789 34.11601013 48.94439578 C29.97767182 48.94544495 25.83947669 48.95137675 21.70117378 48.96921539 C17.80974702 48.98566393 13.91857158 48.9878674 10.0271225 48.97907639 C8.59845495 48.97830434 7.16977407 48.98267077 5.74114037 48.99253464 C3.79186897 49.00520472 1.84249711 48.99760365 -0.10679626 48.98895264 C-1.19798987 48.9904192 -2.28918348 48.99188576 -3.41344357 48.99339676 C-6.60097484 48.57160924 -7.95555636 47.86904477 -10.22424316 45.62145996 C-12.18246271 39.74680133 -11.53130602 33.02613825 -11.57434082 26.86169434 C-11.59090958 25.12164952 -11.61821206 23.38167301 -11.65637207 21.64196777 C-11.71121197 19.1269621 -11.73302177 16.61354589 -11.74768066 14.09802246 C-11.77035004 13.32391022 -11.79301941 12.54979797 -11.81637573 11.75222778 C-11.80141017 7.91527974 -11.48756237 5.95326044 -9.07678986 2.91551971 C-5.71128533 0.20893177 -4.26068898 -0.00279107 0 0 Z " fill="#FBD66F" transform="translate(339.2242431640625,295.3785400390625)"/>
<path d="M0 0 C1.25335648 -0.0112088 2.50671295 -0.0224176 3.79804993 -0.03396606 C5.17929541 -0.0210561 6.56053626 -0.00764202 7.94177246 0.00622559 C9.40236556 0.00272308 10.86295485 -0.00293697 12.3235321 -0.0105896 C16.28444302 -0.02482899 20.24465901 -0.00778496 24.20550346 0.01569557 C28.35249436 0.03581408 32.49945667 0.0299245 36.64648438 0.02758789 C43.61042735 0.02764145 50.5740989 0.04739183 57.53796387 0.07946777 C65.58658225 0.11636019 73.63484511 0.12514323 81.68353701 0.11817026 C89.4293882 0.11186269 97.1751176 0.12262425 104.92094421 0.14213562 C108.21589393 0.15030552 111.51078136 0.15301992 114.80574036 0.15144348 C118.68659242 0.15056384 122.56710719 0.16480184 126.44787025 0.19067001 C127.87125831 0.19782561 129.29468227 0.19991834 130.71808434 0.19655228 C132.6625838 0.19283137 134.60709037 0.20944302 136.55151367 0.22705078 C138.18302494 0.23264385 138.18302494 0.23264385 139.84749603 0.23834991 C143.1860126 0.67513452 145.07926517 1.63601755 147.77575684 3.62145996 C149.36582215 6.80159059 148.9599276 10.24116653 148.97888184 13.73474121 C148.98458191 14.54130661 148.99028198 15.34787201 148.99615479 16.17887878 C149.00560879 17.88783454 149.01214036 19.59680856 149.01599121 21.30578613 C149.02568003 23.91329037 149.05669183 26.52000074 149.08825684 29.12731934 C149.09478868 30.78812195 149.10003844 32.4489302 149.10388184 34.10974121 C149.11622864 34.88699051 149.12857544 35.66423981 149.14129639 36.46504211 C149.12270112 41.01261479 148.69925765 44.0604236 145.77575684 47.62145996 C142.53888557 48.70041705 140.19070441 48.75261528 136.78529358 48.76190186 C135.53324127 48.767612 134.28118896 48.77332214 132.99119568 48.77920532 C131.60110484 48.78045065 130.21101388 48.78157575 128.82092285 48.78259277 C127.35900751 48.78722134 125.89709339 48.79224605 124.43518066 48.79763794 C120.46207641 48.81075818 116.48898905 48.81720588 112.51586652 48.8216486 C110.03449542 48.82457925 107.55312895 48.828684 105.07176018 48.83315277 C97.31046907 48.84682522 89.54918852 48.85649375 81.7878862 48.86035466 C72.8237996 48.86483831 63.85986526 48.88240141 54.89582497 48.91135526 C47.96921683 48.93295311 41.04265159 48.94305789 34.11601013 48.94439578 C29.97767182 48.94544495 25.83947669 48.95137675 21.70117378 48.96921539 C17.80974702 48.98566393 13.91857158 48.9878674 10.0271225 48.97907639 C8.59845495 48.97830434 7.16977407 48.98267077 5.74114037 48.99253464 C3.79186897 49.00520472 1.84249711 48.99760365 -0.10679626 48.98895264 C-1.19798987 48.9904192 -2.28918348 48.99188576 -3.41344357 48.99339676 C-6.60097484 48.57160924 -7.95555636 47.86904477 -10.22424316 45.62145996 C-12.18246271 39.74680133 -11.53130602 33.02613825 -11.57434082 26.86169434 C-11.59090958 25.12164952 -11.61821206 23.38167301 -11.65637207 21.64196777 C-11.71121197 19.1269621 -11.73302177 16.61354589 -11.74768066 14.09802246 C-11.77035004 13.32391022 -11.79301941 12.54979797 -11.81637573 11.75222778 C-11.80141017 7.91527974 -11.48756237 5.95326044 -9.07678986 2.91551971 C-5.71128533 0.20893177 -4.26068898 -0.00279107 0 0 Z " fill="#FBD66F" transform="translate(339.2242431640625,199.3785400390625)"/>
<path d="M0 0 C21.12 0 42.24 0 64 0 C64 15.84 64 31.68 64 48 C42.88 48 21.76 48 0 48 C0 32.16 0 16.32 0 0 Z " fill="#FF826E" transform="translate(184,328)"/>
<path d="M0 0 C36.96 0 73.92 0 112 0 C112 5.28 112 10.56 112 16 C75.04 16 38.08 16 0 16 C0 10.72 0 5.44 0 0 Z " fill="#000000" transform="translate(40,376)"/>
<path d="M0 0 C36.96 0 73.92 0 112 0 C112 5.28 112 10.56 112 16 C75.04 16 38.08 16 0 16 C0 10.72 0 5.44 0 0 Z " fill="#FFEAA7" transform="translate(352,360)"/>
<path d="M0 0 C36.96 0 73.92 0 112 0 C112 5.28 112 10.56 112 16 C75.04 16 38.08 16 0 16 C0 10.72 0 5.44 0 0 Z " fill="#000000" transform="translate(40,344)"/>
<path d="M0 0 C36.96 0 73.92 0 112 0 C112 5.28 112 10.56 112 16 C75.04 16 38.08 16 0 16 C0 10.72 0 5.44 0 0 Z " fill="#FFEAA7" transform="translate(352,264)"/>
<path d="M0 0 C26.4 0 52.8 0 80 0 C80 5.28 80 10.56 80 16 C53.6 16 27.2 16 0 16 C0 10.72 0 5.44 0 0 Z " fill="#000000" transform="translate(72,312)"/>
<path d="M0 0 C21.12 0 42.24 0 64 0 C64 5.28 64 10.56 64 16 C42.88 16 21.76 16 0 16 C0 10.72 0 5.44 0 0 Z " fill="#AAB2BD" transform="translate(120,472)"/>
<path d="M0 0 C5.28 0 10.56 0 16 0 C16 5.28 16 10.56 16 16 C10.72 16 5.44 16 0 16 C0 10.72 0 5.44 0 0 Z " fill="#000000" transform="translate(376,408)"/>
<path d="M0 0 C5.28 0 10.56 0 16 0 C16 5.28 16 10.56 16 16 C10.72 16 5.44 16 0 16 C0 10.72 0 5.44 0 0 Z " fill="#000000" transform="translate(344,408)"/>
<path d="M0 0 C5.28 0 10.56 0 16 0 C16 5.28 16 10.56 16 16 C10.72 16 5.44 16 0 16 C0 10.72 0 5.44 0 0 Z " fill="#000000" transform="translate(376,312)"/>
<path d="M0 0 C5.28 0 10.56 0 16 0 C16 5.28 16 10.56 16 16 C10.72 16 5.44 16 0 16 C0 10.72 0 5.44 0 0 Z " fill="#000000" transform="translate(344,312)"/>
<path d="M0 0 C5.28 0 10.56 0 16 0 C16 5.28 16 10.56 16 16 C10.72 16 5.44 16 0 16 C0 10.72 0 5.44 0 0 Z " fill="#000000" transform="translate(40,312)"/>
<path d="M0 0 C5.28 0 10.56 0 16 0 C16 5.28 16 10.56 16 16 C10.72 16 5.44 16 0 16 C0 10.72 0 5.44 0 0 Z " fill="#000000" transform="translate(376,216)"/>
<path d="M0 0 C5.28 0 10.56 0 16 0 C16 5.28 16 10.56 16 16 C10.72 16 5.44 16 0 16 C0 10.72 0 5.44 0 0 Z " fill="#000000" transform="translate(344,216)"/>
</svg>
